<svg xmlns="http://www.w3.org/2000/svg" aria-hidden="true" style="position:absolute;width:0;height:0;overflow:hidden">
<symbol id="burger" viewBox="0 0 24 24"><path d="M2 5.995C2 5.445 2.446 5 2.995 5H11.005C11.2689 5 11.522 5.10483 11.7086 5.29143C11.8952 5.47803 12 5.73111 12 5.995C12 6.25889 11.8952 6.51197 11.7086 6.69857C11.522 6.88517 11.2689 6.99 11.005 6.99H2.995C2.73111 6.99 2.47803 6.88517 2.29143 6.69857C2.10483 6.51197 2 6.25889 2 5.995ZM2 12C2 11.45 2.446 11.005 2.995 11.005H21.005C21.2689 11.005 21.522 11.1098 21.7086 11.2964C21.8952 11.483 22 11.7361 22 12C22 12.2639 21.8952 12.517 21.7086 12.7036C21.522 12.8902 21.2689 12.995 21.005 12.995H2.995C2.73111 12.995 2.47803 12.8902 2.29143 12.7036C2.10483 12.517 2 12.2639 2 12ZM2.995 17.01C2.73111 17.01 2.47803 17.1148 2.29143 17.3014C2.10483 17.488 2 17.7411 2 18.005C2 18.2689 2.10483 18.522 2.29143 18.7086C2.47803 18.8952 2.73111 19 2.995 19H15.005C15.2689 19 15.522 18.8952 15.7086 18.7086C15.8952 18.522 16 18.2689 16 18.005C16 17.7411 15.8952 17.488 15.7086 17.3014C15.522 17.1148 15.2689 17.01 15.005 17.01H2.995Z" fill="white"/></symbol>





<symbol id="logo" viewBox="0 0 50 50" fill="none">
<path d="M43.9511 29.0059L33.4076 4.85455L31.1086 3.26081L28.4133 2.40264L24.7667 1.42188L20.4858 3.26081L17.632 4.85455L28.4133 29.0059H43.9511Z" fill="url(#paint0_linear_102_110)"/>
<path d="M6.11333 20.9295L16.6568 45.1374L18.9558 46.7349L21.6511 47.5951L25.2978 48.5781L29.5786 46.7349L32.4325 45.1374L21.6511 20.9295L6.11333 20.9295Z" fill="url(#paint1_linear_102_110)"/>
<path d="M17.0682 5.17001L0.699824 28.8298L17.0682 29.0052L28.9005 5.17001C29.7312 2.73162 32.3306 4.15401 33.5264 5.17001C28.4158 -4.19337 20.4248 1.2686 17.0682 5.17001Z" fill="white"/>
<path d="M32.9318 44.83L49.3002 21.1702L32.9318 20.9948L21.0995 44.83C20.2688 47.2684 17.6694 45.846 16.4736 44.83C21.5842 54.1934 29.5752 48.7314 32.9318 44.83Z" fill="white"/>
<defs>
<linearGradient id="paint0_linear_102_110" x1="41.2244" y1="29.0059" x2="28.7202" y2="5.61312" gradientUnits="userSpaceOnUse">
<stop/>
<stop offset="0.494792" stop-color="white"/>
<stop offset="1" stop-color="white"/>
</linearGradient>
<linearGradient id="paint1_linear_102_110" x1="8.84009" y1="20.9295" x2="21.3898" y2="44.3526" gradientUnits="userSpaceOnUse">
<stop stop-color="#0C0C0C"/>
<stop offset="0.494792" stop-color="white"/>
<stop offset="1" stop-color="white"/>
</linearGradient>
</defs>
</symbol>







<symbol id="burger_close" viewBox="0 0 24 24"><path d="M18 6L6 18" stroke="white" stroke-width="1.3" stroke-linecap="round" stroke-linejoin="round"/><path d="M6 6L18 18" stroke="white" stroke-width="1.3" stroke-linecap="round" stroke-linejoin="round"/></symbol><symbol id="heart" viewBox="0 0 24 24" fill="none"><path d="M20.8401 4.60999C20.3294 4.099 19.7229 3.69364 19.0555 3.41708C18.388 3.14052 17.6726 2.99817 16.9501 2.99817C16.2276 2.99817 15.5122 3.14052 14.8448 3.41708C14.1773 3.69364 13.5709 4.099 13.0601 4.60999L12.0001 5.66999L10.9401 4.60999C9.90843 3.5783 8.50915 2.9987 7.05012 2.9987C5.59109 2.9987 4.19181 3.5783 3.16012 4.60999C2.12843 5.64169 1.54883 7.04096 1.54883 8.49999C1.54883 9.95903 2.12843 11.3583 3.16012 12.39L4.22012 13.45L12.0001 21.23L19.7801 13.45L20.8401 12.39C21.3511 11.8792 21.7565 11.2728 22.033 10.6053C22.3096 9.93789 22.4519 9.22248 22.4519 8.49999C22.4519 7.77751 22.3096 7.0621 22.033 6.39464C21.7565 5.72718 21.3511 5.12075 20.8401 4.60999V4.60999Z" stroke="white" stroke-opacity="0.1" stroke-width="2" stroke-linecap="round" stroke-linejoin="round"/></symbol><symbol id="arrow_right" viewBox="0 0 24 24" fill="none"><path d="M9 18L15 12L9 6" stroke="white" stroke-linecap="round" stroke-linejoin="round"/></symbol><symbol id="arrow_left" viewBox="0 0 24 24" fill="none"><path d="M15 18L9 12L15 6" stroke="white" stroke-linecap="round" stroke-linejoin="round"/></symbol><symbol id="facebook" viewBox="0 0 24 24"><g opacity="0.8"><path d="M14.6399 3.48011C14.8199 3.48011 15 3.48011 15.36 3.48011V6.18011C15.18 6.18011 14.82 6.18011 14.46 6.18011C14.1 6.18011 13.74 6.18011 13.56 6.36011C13.38 6.54011 13.3799 6.72011 13.3799 7.14011C13.3799 7.50011 13.3799 7.74011 13.3799 8.10011H15.36V10.3801H13.3799V20.2801H10.32V10.3201H8.69995V8.04011H10.32V7.26011C10.32 5.94011 10.5 4.98011 10.86 4.56011C11.4 3.78011 12.48 3.4201 14.1 3.4201C14.28 3.4801 14.4599 3.48011 14.6399 3.48011Z" fill="white"/></g></symbol><symbol id="instagram" viewBox="0 0 24 24"><g opacity="0.8"><path d="M21.5381 8.06697C21.5263 7.2612 21.3771 6.46182 21.0913 5.70821C20.5913 4.42133 19.5731 3.40374 18.284 2.90559C17.5388 2.62565 16.7509 2.47557 15.9533 2.45854C14.9277 2.41277 14.6025 2.39999 11.9988 2.39999C9.39519 2.39999 9.06148 2.39999 8.04326 2.45854C7.24682 2.47557 6.4589 2.62565 5.71363 2.90559C4.4246 3.40374 3.40532 4.42133 2.90634 5.70821C2.62594 6.45224 2.47454 7.23885 2.45961 8.03397C2.41376 9.059 2.3999 9.38365 2.3999 11.983C2.3999 14.5823 2.3999 14.9144 2.45961 15.932C2.4756 16.7281 2.62594 17.5137 2.90634 18.2598C3.40639 19.5457 4.4246 20.5633 5.7147 21.0614C6.45677 21.3509 7.24468 21.5148 8.04433 21.5404C9.07107 21.5862 9.39626 21.6 11.9999 21.6C14.6035 21.6 14.9373 21.6 15.9555 21.5404C16.7519 21.5244 17.5398 21.3743 18.2862 21.0944C19.5752 20.5952 20.5934 19.5776 21.0935 18.2918C21.3739 17.5467 21.5242 16.7611 21.5402 15.9639C21.586 14.9399 21.5999 14.6153 21.5999 12.0149C21.5978 9.41558 21.5978 9.08561 21.5381 8.06697ZM11.9924 16.8985C9.26938 16.8985 7.06343 14.6962 7.06343 11.9776C7.06343 9.25912 9.26938 7.05683 11.9924 7.05683C14.7134 7.05683 16.9215 9.25912 16.9215 11.9776C16.9215 14.6962 14.7134 16.8985 11.9924 16.8985ZM17.1176 8.02226C16.4811 8.02226 15.9683 7.50921 15.9683 6.87481C15.9683 6.24042 16.4811 5.72737 17.1176 5.72737C17.752 5.72737 18.2659 6.24042 18.2659 6.87481C18.2659 7.50921 17.752 8.02226 17.1176 8.02226Z" fill="white"/><path d="M11.994 14.982C13.6525 14.982 14.997 13.6375 14.997 11.979C14.997 10.3205 13.6525 8.97598 11.994 8.97598C10.3355 8.97598 8.99097 10.3205 8.99097 11.979C8.99097 13.6375 10.3355 14.982 11.994 14.982Z" fill="white"/></g></symbol><symbol id="youtube" viewBox="0 0 24 24"><g opacity="0.8"><path fill-rule="evenodd" clip-rule="evenodd" d="M18.1801 4.49988C17.1601 4.43988 15.0601 4.37988 11.8801 4.37988H11.4601C8.40012 4.37988 6.36015 4.43988 5.34015 4.55988C3.96015 4.67988 3.00012 5.03988 2.46012 5.51988C1.98012 5.93988 1.62013 6.71988 1.50013 7.73988C1.44013 8.39988 1.38013 9.77988 1.38013 11.8799V12.1799C1.38013 14.1599 1.44012 15.5399 1.56012 16.1999C1.74012 17.1599 2.04015 17.8799 2.64015 18.2999C3.24015 18.7799 4.26013 19.0799 5.70013 19.1999C6.72013 19.2599 8.82013 19.3199 12.0001 19.3199H12.4201C15.4801 19.3199 17.5201 19.2599 18.5401 19.1399C19.9201 19.0199 20.8801 18.6599 21.4201 18.1799C21.9001 17.7599 22.2601 16.9799 22.3801 15.9599C22.4401 15.2999 22.5001 13.9199 22.5001 11.8199V11.5199C22.5001 9.53988 22.4401 8.15988 22.3201 7.49988C22.1401 6.53988 21.8401 5.81988 21.2401 5.39988C20.6401 4.91988 19.6201 4.61988 18.1801 4.49988ZM15.8401 11.8799L9.24015 15.8399V7.91988L15.8401 11.8799Z" fill="white"/></g></symbol><symbol id="popup_close" viewBox="0 0 24 24" fill="none"><path d="M18 6L6 18" stroke="#141414" stroke-width="1.3" stroke-linecap="round" stroke-linejoin="round"/><path d="M6 6L18 18" stroke="#141414" stroke-width="1.3" stroke-linecap="round" stroke-linejoin="round"/></symbol>




</svg>
